<?xml version="1.0" ?><svg id="Layer_1" style="enable-background:new 0 0 96 96;" version="1.1" viewBox="0 0 96 96" xml:space="preserve" xmlns="http://www.w3.org/2000/svg" xmlns:xlink="http://www.w3.org/1999/xlink"><path d="M8.7,4l7,78.9l32.3,9l32.4-9l7-78.9L8.7,4L8.7,4z M4.3,0h87.4L84,86L47.9,96l-36-10L4.3,0L4.3,0z M30.4,26l3.2,16h14.6H66  c0.6,0,1.1,0.2,1.5,0.7c0.4,0.4,0.6,1,0.5,1.5l-2,20c-0.1,0.8-0.6,1.4-1.3,1.7l-16,6c-0.5,0.2-0.9,0.2-1.4,0l-16-6  c-0.8-0.3-1.3-1-1.3-1.9v-8c0-1.1,0.9-2,2-2c0.6,0,1.1,0.3,1.5,0.7c0.3,0.4,0.5,0.8,0.5,1.3v6.6l14,5.3l14.1-5.3L63.8,46H43.6H32  c-1,0-1.8-0.7-2-1.6l-4-20c-0.1-0.6,0-1.2,0.4-1.7c0.4-0.5,0.9-0.7,1.5-0.7h40c1.1,0,2,0.9,2,2c0,1.1-0.9,2-2,2h-1.2L30.4,26  L30.4,26z"/></svg>